<?xml version="1.0" encoding="UTF-8"?>
<svg width="512" height="512" viewBox="0 0 512 512" fill="none" xmlns="http://www.w3.org/2000/svg">
  <!-- Smooth rounded square background for desktop app icon -->
  <rect width="512" height="512" rx="112" fill="#1A1E24"/>
  
  <!-- Subtle inner gradient shadow/glow to give depth -->
  <rect x="2" y="2" width="508" height="508" rx="110" stroke="url(#paint0_linear)" stroke-width="4" stroke-opacity="0.15"/>

  <!-- Minimalist Hermes Abstract Wing & 'H' Motif -->
  <g filter="url(#drop_shadow)">
    <!-- Main Left Vertical Stem of 'H' -->
    <path d="M160 140C160 128.954 168.954 120 180 120H192C203.046 120 212 128.954 212 140V372C212 383.046 203.046 392 192 392H180C168.954 392 160 383.046 160 372V140Z" fill="url(#paint1_linear)"/>
    
    <!-- Crossbar of 'H' -->
    <path d="M212 244H300V284H212V244Z" fill="url(#paint2_linear)"/>
    
    <!-- Right Wing Elements (Combining Right Stem of 'H' with Flight Motifs) -->
    <!-- Top Wing Feather / Segment -->
    <path d="M300 140C300 128.954 308.954 120 320 120H336C370 120 410 145 424 176C434 198.5 412 224 386 224H300V140Z" fill="url(#paint3_linear)"/>
    
    <!-- Middle Wing Feather / Segment -->
    <path d="M300 224H364C394 224 430 248 436 280C441 304.5 418 324 392 324H300V224Z" fill="url(#paint4_linear)"/>
    
    <!-- Bottom Wing Feather / Segment -->
    <path d="M300 324H340C368 324 396 346 392 376C388.5 401.5 364 412 340 412H320C308.954 412 300 403.046 300 392V324Z" fill="url(#paint5_linear)"/>
  </g>

  <!-- Definitions for Gradients and Shadows -->
  <defs>
    <!-- Border Glow -->
    <linearGradient id="paint0_linear" x1="0" y1="0" x2="512" y2="512" gradientUnits="userSpaceOnUse">
      <stop stop-color="white"/>
      <stop offset="1" stop-color="white" stop-opacity="0"/>
    </linearGradient>

    <!-- Premium Metallic/Electric Cyan & Blue Gradients for Minimalist Tech Look -->
    <linearGradient id="paint1_linear" x1="160" y1="120" x2="212" y2="392" gradientUnits="userSpaceOnUse">
      <stop stop-color="#00F2FE"/>
      <stop offset="1" stop-color="#4FACFE"/>
    </linearGradient>
    
    <linearGradient id="paint2_linear" x1="212" y1="244" x2="300" y2="284" gradientUnits="userSpaceOnUse">
      <stop stop-color="#4FACFE"/>
      <stop offset="1" stop-color="#00B8FF"/>
    </linearGradient>

    <linearGradient id="paint3_linear" x1="300" y1="120" x2="424" y2="224" gradientUnits="userSpaceOnUse">
      <stop stop-color="#00F2FE"/>
      <stop offset="1" stop-color="#0000FF" stop-opacity="0.8"/>
    </linearGradient>

    <linearGradient id="paint4_linear" x1="300" y1="224" x2="436" y2="324" gradientUnits="userSpaceOnUse">
      <stop stop-color="#00B8FF"/>
      <stop offset="1" stop-color="#1D4ED8"/>
    </linearGradient>

    <linearGradient id="paint5_linear" x1="300" y1="324" x2="392" y2="412" gradientUnits="userSpaceOnUse">
      <stop stop-color="#1D4ED8"/>
      <stop offset="1" stop-color="#111827"/>
    </linearGradient>
<!-- Soft Drop Shadow for the Icon Graphic -->
    <filter id="drop_shadow" x="140" y="105" width="320" height="332" filterUnits="userSpaceOnUse" color-interpolation-filters="sRGB">
      <feFlood flood-opacity="0" result="BackgroundImageFix"/>
      <feColorMatrix in="SourceAlpha" type="matrix" values="0 0 0 0 0 0 0 0 0 0 0 0 0 0 0 0 0 0 127 0" result="hardAttribute"/>
      <feOffset dy="12"/>
      <feGaussianBlur stdDeviation="10"/>
      <feComposite in2="hardAttribute" operator="out"/>
      <feColorMatrix type="matrix" values="0 0 0 0 0.0313726 0 0 0 0 0.490196 0 0 0 0 0.996078 0 0 0 0.35 0"/>
      <feBlend mode="normal" in2="BackgroundImageFix" result="effect1_dropShadow_1"/>
      <feBlend mode="normal" in="SourceGraphic" in2="effect1_dropShadow_1" result="shape"/>
    </filter>
  </defs>
</svg>
